# xmcd CD database file
#
# Track frame offsets:
#	150
#	25379
#	36620
#	57837
#	63171
#	65329
#	77128
#	89930
#	116664
#	136320
#	164113
#	168946
#	179797
#	193156
#
# Disc length: 2759 seconds
#
# Revision: 1
# Processed by: cddbd v1.5.2PL0 Copyright (c) Steve Scherf et al.
# Submitted via: CDex 1.70beta2
#
DISCID=d70ac50e
DTITLE=The North Vancouver Youth Band - Sounds of the North Shore
DYEAR=2002
DGENRE=Jazz
TTITLE0=Digital Prism (Larry Clark)
TTITLE1=Sheffield March (GB Goddard)
TTITLE2=The Light Cavalry Overture (Franz Von Suppe)
TTITLE3=Sawmill Creek (Bruce Pearson)
TTITLE4=Lightly Row (Traditional)
TTITLE5=Fancy Pants (Sammy Nestico)
TTITLE6=Amparito Roca (Jaime Texdor)
TTITLE7=Prayer (Charles Gounod)
TTITLE8=Canon (Pachelbel)
TTITLE9='Twas the Night Before Christmas (arr Dawn Haylett)
TTITLE10=Jingle Bells (JS Pierpoint)
TTITLE11=Rudolph the Red-Nosed Reindeer (Johnny Marks)
TTITLE12=Silent Night (Franz Gruber)
TTITLE13=Sleigh Ride (Leroy Anderson)
EXTD=YEAR: 2002
EXTT0=
EXTT1=
EXTT2=
EXTT3=
EXTT4=
EXTT5=
EXTT6=
EXTT7=
EXTT8=
EXTT9=
EXTT10=
EXTT11=
EXTT12=
EXTT13=
PLAYORDER=
